<?xml version="1.0" encoding="UTF-8"?><svg id="Layer_1" xmlns="http://www.w3.org/2000/svg" viewBox="0 0 500 500"><defs><style>.cls-1{fill:#008b43;stroke-width:0px;}</style></defs><path class="cls-1" d="M102.23,167.87c1.99-6.43,2.52-9.81,4-12.7,21.83-42.4,59.15-60.29,104.36-64.12,61.84-5.24,119.21,12.4,175.13,36.4,9.69,4.16,19.42,8.22,29.13,12.33-.69-5.42-2.68-8.38-5.33-10.54-56.92-46.18-121.26-71.07-195.32-66.06-83.9,5.67-138.82,48.05-158.13,122.53-8.2,31.64-3.1,62.09,14.26,92.59,7.15-13.05,12.27-23.49,18.35-33.33,32.33-52.27,74.92-91.32,138.29-99.71,45.89-6.08,89.23,7.81,131.67,23.3,19.07,6.96,37.32,16.16,58.48,25.46-27.67,12.9-53.86,20.26-74,35.57-35.68,27.12-68.3,58.42-101.05,89.2-34.53,32.45-66.12,37.22-106.15,13.49-2.99-1.77-6.01-3.49-9.72-5.63,2.1,27.7,10.83,37.52,34.04,44.43,26.63,7.93,51.42,2.54,72.59-12.44,28.35-20.06,56.08-41.69,80.83-65.96,35.47-34.78,76.31-57.28,124.63-66.94,17.82-3.57,35.7-6.89,57.63-11.11-124.35-88.25-247.52-149.84-393.69-46.74Z"/><path class="cls-1" d="M287.62,230.18c21.35-9.09,41.72-20.49,62.52-30.85-21.15-.25-40.29,3.42-59.48,6.79-63.7,11.19-126.75,23.28-180.42,63.81C54.16,312.27,15.37,364.71,4.08,437.45c3.22-1.15,4.19-1.19,4.5-1.66,3.95-6.04,7.93-12.06,11.66-18.23,38.54-63.74,89.02-114.44,158.63-143.67,36.02-15.13,72.81-28.41,108.75-43.71Z"/><path class="cls-1" d="M236,373.1c74.68,30.89,169.67-31.59,181.19-118.53-45.56,63.15-101.1,107.91-181.19,118.53Z"/></svg>